<?xml version="1.0" standalone="no"?>
<!DOCTYPE svg PUBLIC "-//W3C//DTD SVG 20010904//EN"
 "http://www.w3.org/TR/2001/REC-SVG-20010904/DTD/svg10.dtd">
<svg version="1.0" xmlns="http://www.w3.org/2000/svg"
 width="530.000000pt" height="530.000000pt" viewBox="0 0 530.000000 530.000000"
 preserveAspectRatio="xMidYMid meet">
<metadata>
Created by potrace 1.11, written by Peter Selinger 2001-2013
</metadata>
<g transform="translate(0.000000,530.000000) scale(0.100000,-0.100000)"
fill="#000000" stroke="none">
<path d="M2543 4405 c-112 -106 -262 -269 -341 -371 -119 -154 -290 -440 -357
-597 -21 -50 -33 -67 -44 -64 -379 112 -606 154 -866 158 l-100 2 -14 -94
c-10 -64 -14 -183 -15 -369 0 -275 10 -405 48 -586 l13 -61 -126 -6 c-196 -10
-396 -48 -541 -102 -36 -14 -74 -25 -84 -25 -17 0 -18 -6 -12 -82 22 -249 132
-565 272 -775 305 -459 894 -627 1590 -454 186 45 236 71 92 46 -292 -51 -633
-35 -866 41 -243 80 -439 224 -556 408 -66 104 -143 293 -132 323 3 8 2 12 -3
9 -5 -3 -16 36 -25 87 -10 50 -19 102 -22 114 -5 24 2 26 121 42 381 52 778
-10 1026 -160 116 -69 149 -99 320 -287 322 -352 454 -469 649 -575 95 -52
320 -138 320 -122 0 2 -33 27 -72 55 -183 128 -376 324 -490 495 -103 155
-239 461 -224 502 3 8 2 12 -3 9 -4 -3 -18 38 -29 92 -58 265 -63 481 -16 709
41 202 169 492 311 708 69 104 168 234 271 354 l29 34 82 -99 c182 -218 357
-521 440 -757 58 -166 81 -287 88 -457 5 -146 -4 -234 -42 -375 -32 -119 -123
-304 -227 -458 -49 -73 -62 -86 -76 -78 -58 31 -290 310 -276 332 4 7 3 9 -4
5 -6 -4 -27 22 -52 64 -111 190 -176 401 -195 634 -14 168 -50 -7 -50 -239 1
-181 16 -279 69 -433 60 -175 162 -363 276 -506 30 -38 54 -73 52 -78 -1 -5 1
-7 6 -4 5 3 29 -15 53 -40 68 -70 184 -163 195 -156 5 4 64 68 130 142 67 74
139 151 160 170 316 287 631 461 964 531 178 37 403 29 589 -21 35 -9 40 -14
37 -33 -3 -12 -12 -64 -22 -114 -10 -58 -20 -90 -27 -86 -6 3 -7 1 -3 -6 10
-15 -17 -104 -59 -195 -124 -268 -331 -446 -632 -541 -237 -76 -570 -91 -861
-40 -144 25 -94 -1 92 -46 877 -218 1529 91 1775 839 47 141 81 302 84 396 l2
68 -115 38 c-183 61 -410 100 -578 100 l-70 0 14 63 c38 183 48 311 48 587 -1
183 -6 306 -15 369 l-14 94 -100 -2 c-216 -3 -483 -46 -724 -116 -69 -20 -130
-34 -136 -32 -5 3 -21 31 -34 63 -50 120 -212 389 -315 524 -80 104 -207 248
-305 344 -49 50 -87 94 -84 99 3 6 2 7 -4 4 -6 -4 -37 18 -71 48 -33 30 -62
55 -64 55 -1 0 -58 -52 -125 -115z m-1223 -1250 c161 -32 390 -97 390 -112 0
-2 -10 -57 -22 -121 -27 -149 -29 -416 -4 -564 9 -54 16 -102 16 -108 0 -6
-16 -3 -37 6 -86 37 -235 86 -335 110 l-108 27 -10 36 c-43 153 -68 341 -77
574 l-6 177 31 0 c18 0 90 -11 162 -25z m2887 -152 c-7 -197 -18 -301 -47
-443 -37 -177 -30 -166 -113 -185 -96 -21 -226 -62 -310 -96 -67 -28 -67 -28
-62 -6 21 92 26 133 31 250 7 144 -5 299 -35 442 -10 50 -17 91 -16 93 17 19
449 120 519 121 l39 1 -6 -177z"/>
</g>
</svg>
